<svg width="145" height="69" viewBox="0 0 145 69" fill="none" xmlns="http://www.w3.org/2000/svg">
<path d="M83.5518 42.7497C83.5518 42.7497 81.3643 39.833 76.2601 39.833C71.1559 39.833 68.9684 42.7497 68.9684 42.7497V63.1663C68.9684 63.1663 71.1559 61.708 76.2601 61.708C81.3643 61.708 83.5518 63.1663 83.5518 63.1663M83.5518 42.7497V63.1663M83.5518 42.7497C83.5518 42.7497 85.7393 39.833 90.8434 39.833C95.9476 39.833 98.1351 42.7497 98.1351 42.7497V63.1663C98.1351 63.1663 95.9476 61.708 90.8434 61.708C85.7393 61.708 83.5518 63.1663 83.5518 63.1663" stroke="#725EB6" stroke-width="2" stroke-linecap="round" stroke-linejoin="round"/>
<path d="M19.3945 38H18.8086C18.4766 38 18.2031 37.9414 17.9883 37.8242C17.6367 37.6289 17.2266 36.9355 16.7578 35.7441L13.5938 27.5117L9.72656 38H9.14062C8.80859 38 8.53516 37.9414 8.32031 37.8242C7.96875 37.6289 7.55859 36.9355 7.08984 35.7441L1.46484 21.2129H0V20.4219H7.93945V21.2129H5.5957L10.1953 34.0156L13.0664 26.1934L10.8398 20.4219H17.6367V21.2129L15.293 21.1836L19.834 33.752L23.9648 21.2129H21.6211V20.4219H26.4551V21.2129H24.9902L19.3945 38ZM31.3477 31.6426C31.3477 33.4785 31.4648 34.8164 31.6992 35.6562C32.0508 36.9062 32.832 37.5312 34.043 37.5312C34.7266 37.5312 35.2832 37.3262 35.7129 36.916C36.4551 36.1738 36.8262 34.377 36.8262 31.5254C36.8262 29.748 36.709 28.4492 36.4746 27.6289C36.123 26.3594 35.3223 25.7246 34.0723 25.7246C33.3301 25.7246 32.7539 25.9492 32.3438 26.3984C31.6797 27.1602 31.3477 28.9082 31.3477 31.6426ZM34.2188 24.9629C35.8984 24.9629 37.334 25.4219 38.5254 26.3398C40.0684 27.5703 40.8398 29.2793 40.8398 31.4668C40.8398 33.1074 40.3516 34.5527 39.375 35.8027C38.0664 37.4629 36.2598 38.293 33.9551 38.293C32.2754 38.293 30.8301 37.7852 29.6191 36.7695C28.0957 35.4805 27.334 33.7324 27.334 31.5254C27.334 29.9629 27.7832 28.5957 28.6816 27.4238C29.9707 25.7832 31.8164 24.9629 34.2188 24.9629ZM49.8926 37.2383C50.0098 37.2383 50.1172 37.248 50.2148 37.2676C50.4688 37.3066 50.5957 37.5508 50.5957 38H42.3047V37.2383C42.5586 37.2383 42.7832 37.2188 42.9785 37.1797C43.6621 37.0625 44.0039 36.5742 44.0039 35.7148V26.1641H42.3047V25.4023H47.4316L47.6367 28.127C47.8516 27.5801 48.1641 27.0723 48.5742 26.6035C49.4922 25.6465 50.5566 25.168 51.7676 25.168C52.0215 25.168 52.2656 25.1973 52.5 25.2559C53.457 25.5098 53.9355 26.125 53.9355 27.1016C53.9355 27.375 53.877 27.6387 53.7598 27.8926C53.4277 28.6348 52.8711 29.0059 52.0898 29.0059C51.8555 29.0059 51.6406 28.9766 51.4453 28.918C51.0352 28.7617 50.6543 28.3711 50.3027 27.7461C50.0488 27.2969 49.8145 27.0723 49.5996 27.0723C49.4824 27.0723 49.3555 27.1016 49.2188 27.1602C48.3594 27.6094 47.8613 28.8594 47.7246 30.9102V37.2383H49.8926ZM65.127 38L64.7168 35.2461C64.6191 35.5 64.502 35.7441 64.3652 35.9785C63.4863 37.5215 62.1387 38.293 60.3223 38.293C59.2285 38.293 58.2324 37.9609 57.334 37.2969C55.752 36.1445 54.9609 34.3574 54.9609 31.9355C54.9609 29.9824 55.4688 28.3613 56.4844 27.0723C57.6562 25.6465 59.1699 24.9336 61.0254 24.9336C62.4121 24.9336 63.6035 25.3633 64.5996 26.2227V19.7188H61.9336V18.957H68.3203V37.209H69.668C69.8047 37.209 69.9219 37.2188 70.0195 37.2383C70.2539 37.2969 70.3711 37.5508 70.3711 38H65.127ZM58.9746 31.584C58.9746 32.3262 59.0234 33 59.1211 33.6055C59.4531 35.832 60.3027 36.9453 61.6699 36.9453C62.0801 36.9453 62.4609 36.8379 62.8125 36.623C64.043 35.8223 64.6582 33.957 64.6582 31.0273C64.6582 30.3633 64.6191 29.7383 64.541 29.1523C64.209 26.9844 63.3398 25.9004 61.9336 25.9004C61.543 25.9004 61.1719 25.998 60.8203 26.1934C59.5898 26.9355 58.9746 28.7324 58.9746 31.584Z" fill="url(#paint0_linear_9_651)"/>
<path d="M109.333 38L108.923 35.2461C108.825 35.5 108.708 35.7441 108.571 35.9785C107.692 37.5215 106.345 38.293 104.528 38.293C103.435 38.293 102.438 37.9609 101.54 37.2969C99.958 36.1445 99.167 34.3574 99.167 31.9355C99.167 29.9824 99.6748 28.3613 100.69 27.0723C101.862 25.6465 103.376 24.9336 105.231 24.9336C106.618 24.9336 107.81 25.3633 108.806 26.2227V19.7188H106.14V18.957H112.526V37.209H113.874C114.011 37.209 114.128 37.2188 114.226 37.2383C114.46 37.2969 114.577 37.5508 114.577 38H109.333ZM103.181 31.584C103.181 32.3262 103.229 33 103.327 33.6055C103.659 35.832 104.509 36.9453 105.876 36.9453C106.286 36.9453 106.667 36.8379 107.019 36.623C108.249 35.8223 108.864 33.957 108.864 31.0273C108.864 30.3633 108.825 29.7383 108.747 29.1523C108.415 26.9844 107.546 25.9004 106.14 25.9004C105.749 25.9004 105.378 25.998 105.026 26.1934C103.796 26.9355 103.181 28.7324 103.181 31.584ZM126.384 38.293C124.821 38.1953 123.835 37.3066 123.425 35.627C123.327 35.9004 123.2 36.1641 123.044 36.418C122.263 37.668 121.042 38.293 119.382 38.293C118.835 38.293 118.337 38.2246 117.888 38.0879C116.364 37.5996 115.603 36.4863 115.603 34.748C115.622 32.1895 118.142 30.8613 123.161 30.7637V28.8594C123.161 28.293 123.122 27.8047 123.044 27.3945C122.849 26.2812 122.292 25.7246 121.374 25.7246C121.101 25.7246 120.856 25.7734 120.642 25.8711C120.31 26.0664 120.036 26.5547 119.821 27.3359C119.743 27.6094 119.685 27.8047 119.646 27.9219C119.353 28.7422 118.786 29.1523 117.946 29.1523C117.751 29.1523 117.565 29.123 117.39 29.0645C116.667 28.8691 116.306 28.3906 116.306 27.6289C116.306 27.2969 116.394 26.9844 116.569 26.6914C117.253 25.5391 118.923 24.9629 121.579 24.9629C122.263 24.9629 122.897 25.0312 123.483 25.168C125.749 25.7344 126.882 27.2383 126.882 29.6797V35.8027C126.882 36.7402 127.097 37.2285 127.526 37.2676C128.093 37.248 128.435 36.5645 128.552 35.2168L129.313 35.2461C129.255 35.8516 129.167 36.3496 129.05 36.7402C128.698 37.7754 127.81 38.293 126.384 38.293ZM120.905 37.0332C121.042 37.0332 121.198 37.0039 121.374 36.9453C122.194 36.6328 122.79 35.793 123.161 34.4258V31.584C122.282 31.623 121.56 31.7305 120.993 31.9062C119.938 32.2969 119.411 33.1367 119.411 34.4258C119.431 36.125 119.929 36.9941 120.905 37.0332ZM133.269 42.6875C133.464 42.6875 133.669 42.6484 133.884 42.5703C134.743 42.2578 135.642 40.9395 136.579 38.6152L130.866 26.1348H129.636V25.4023H136.521V26.1348H134.733L138.278 34.3086L141.472 26.1348H139.274V25.4023H143.815C143.815 25.5 143.806 25.5977 143.786 25.6953C143.747 25.9883 143.513 26.1348 143.083 26.1348C142.771 26.1738 142.448 26.457 142.116 26.9844L137.722 38.3809C137.351 39.3574 136.96 40.1875 136.55 40.8711C135.476 42.7656 134.118 43.7129 132.478 43.7129C131.755 43.7129 131.12 43.5664 130.573 43.2734C129.792 42.8633 129.401 42.3359 129.401 41.6914C129.401 41.5547 129.421 41.4082 129.46 41.252C129.655 40.6465 130.104 40.3438 130.808 40.3438C131.14 40.3438 131.433 40.4316 131.687 40.6074C131.901 40.7832 132.146 41.2129 132.419 41.8965C132.634 42.4238 132.917 42.6875 133.269 42.6875Z" fill="url(#paint1_linear_9_651)"/>
<path d="M90.987 23.4551C89.5941 24.1696 88.2921 23.9097 87.0812 22.6755C87.137 22.9605 87.1626 23.252 87.1581 23.5501C87.1253 25.0238 86.3954 26.1848 84.9684 27.0332C84.4983 27.3126 84.0353 27.5084 83.5793 27.6204C82.0202 27.9792 80.7966 27.4115 79.9083 25.9174C78.6176 23.7081 80.1046 21.2789 84.3693 18.6299L83.3962 16.9931C83.1068 16.5062 82.8237 16.1064 82.5469 15.7938C81.8101 14.9367 81.0472 14.7426 80.2581 15.2117C80.0231 15.3515 79.8382 15.5182 79.7034 15.7119C79.5178 16.0495 79.5323 16.6089 79.7469 17.3903C79.8195 17.6652 79.8689 17.8631 79.8952 17.9838C80.0626 18.8386 79.7853 19.4806 79.0634 19.9098C78.8955 20.0096 78.7211 20.0792 78.54 20.1187C77.819 20.3201 77.2639 20.0934 76.8747 19.4386C76.705 19.1532 76.6208 18.8397 76.6222 18.4981C76.621 17.1582 77.7619 15.8096 80.0452 14.4522C80.6328 14.1029 81.2133 13.8373 81.7868 13.6553C84.0238 12.9844 85.766 13.6983 87.0136 15.7968L90.1426 21.06C90.6217 21.8659 91.0559 22.1758 91.4452 21.9898C91.9221 21.6835 91.8665 20.9213 91.2786 19.703L91.9483 19.3389C92.2074 19.8893 92.3863 20.3623 92.4852 20.758C92.712 21.8274 92.2126 22.7265 90.987 23.4551ZM85.6341 25.1718C85.7516 25.102 85.871 24.9969 85.9921 24.8567C86.5376 24.1689 86.6204 23.1426 86.2407 21.7778L84.7885 19.335C84.053 19.8178 83.4867 20.2794 83.0897 20.7199C82.3827 21.5947 82.3586 22.586 83.0174 23.6941C83.9025 25.1447 84.7747 25.6373 85.6341 25.1718Z" fill="url(#paint2_linear_9_651)"/>
<defs>
<linearGradient id="paint0_linear_9_651" x1="35.5518" y1="13" x2="35.5518" y2="48" gradientUnits="userSpaceOnUse">
<stop stop-color="#3833A2"/>
<stop offset="1" stop-color="#B08CCA"/>
</linearGradient>
<linearGradient id="paint1_linear_9_651" x1="121.052" y1="13" x2="121.052" y2="48" gradientUnits="userSpaceOnUse">
<stop stop-color="#3833A2"/>
<stop offset="1" stop-color="#B08CCA"/>
</linearGradient>
<linearGradient id="paint2_linear_9_651" x1="74.4985" y1="3.8324" x2="92.3842" y2="33.9174" gradientUnits="userSpaceOnUse">
<stop stop-color="#3833A2"/>
<stop offset="1" stop-color="#B08CCA"/>
</linearGradient>
</defs>
</svg>
